# xmcd
#
# Track frame offsets: 
#        150
#        16412
#        32447
#        42935
#        58735
#        74350
#        86185
#        100395
#        114460
#        130627
#        147565
#        159757
#        173497
#        189360
#        202662
#        217342
#        232760
#        248622
#        260350
#        270685
#
# Disc length: 3778 seconds
#
# Revision: 4
# Processed by: cddbd v1.5.2PL0 Copyright (c) Steve Scherf et al.
# Submitted via: ExactAudioCopy v1.3
#
DISCID=0e0ec014
DTITLE=George Strait - The Very Best Of George Strait Vol. 2 (1988-199
DTITLE=3)
DYEAR=1998
DGENRE=Country
TTITLE0=Famous Last Words Of A Fool
TTITLE1=Baby Blue
TTITLE2=If You Ain't Lovin' (You Ain't Livin')
TTITLE3=Baby's Gotten Good At Goodbye
TTITLE4=What's Going On In Your World
TTITLE5=Ace In The Hole
TTITLE6=Overnight Success
TTITLE7=Love Without End, Amen
TTITLE8=Drinking Champagne
TTITLE9=I've Come To Expect It From You
TTITLE10=If I Know Me
TTITLE11=You Know Me Better Than That
TTITLE12=The Chill Of An Early Fall
TTITLE13=Lovesick Blues
TTITLE14=Gone As A Girl Can Get
TTITLE15=So Much Like My Dad
TTITLE16=I Cross My Heart
TTITLE17=Overnight Male
TTITLE18=Heartland
TTITLE19=When Did You Stop Loving Me
EXTD=
EXTT0=
EXTT1=
EXTT2=
EXTT3=
EXTT4=
EXTT5=
EXTT6=
EXTT7=
EXTT8=
EXTT9=
EXTT10=
EXTT11=
EXTT12=
EXTT13=
EXTT14=
EXTT15=
EXTT16=
EXTT17=
EXTT18=
EXTT19=
PLAYORDER=
